<svg width="48" height="48" viewBox="0 0 48 48" fill="none" xmlns="http://www.w3.org/2000/svg">
<path opacity="0.3" d="M9.3 21.8983V18.3086H13.5V21.8983H34.5V18.3086H38.7V21.8983H42.9C44.0616 21.8983 45 22.8367 45 23.9983C45 25.1598 44.0616 26.0983 42.9 26.0983H26.1V29.688H21.9V26.0983H5.1C3.93844 26.0983 3 25.1598 3 23.9983C3 22.8367 3.93844 21.8983 5.1 21.8983H9.3Z" fill="#A387FF"/>
<path d="M16.6504 9.5625C16.6504 12.462 14.2999 14.8125 11.4004 14.8125C8.5009 14.8125 6.15039 12.462 6.15039 9.5625C6.15039 6.66301 8.5009 4.3125 11.4004 4.3125C14.2999 4.3125 16.6504 6.66301 16.6504 9.5625ZM9.03949 9.5625C9.03949 10.8664 10.0965 11.9234 11.4004 11.9234C12.7043 11.9234 13.7613 10.8664 13.7613 9.5625C13.7613 8.25861 12.7043 7.2016 11.4004 7.2016C10.0965 7.2016 9.03949 8.25861 9.03949 9.5625Z" fill="#A387FF"/>
<path d="M29.25 38.4375C29.25 41.337 26.8995 43.6875 24 43.6875C21.1005 43.6875 18.75 41.337 18.75 38.4375C18.75 35.538 21.1005 33.1875 24 33.1875C26.8995 33.1875 29.25 35.538 29.25 38.4375ZM21.6375 38.4375C21.6375 39.7423 22.6952 40.8 24 40.8C25.3048 40.8 26.3625 39.7423 26.3625 38.4375C26.3625 37.1327 25.3048 36.075 24 36.075C22.6952 36.075 21.6375 37.1327 21.6375 38.4375Z" fill="#A387FF"/>
<path d="M41.8496 9.5625C41.8496 12.462 39.4991 14.8125 36.5996 14.8125C33.7001 14.8125 31.3496 12.462 31.3496 9.5625C31.3496 6.66301 33.7001 4.3125 36.5996 4.3125C39.4991 4.3125 41.8496 6.66301 41.8496 9.5625ZM34.2391 9.5625C34.2391 10.8662 35.2959 11.923 36.5996 11.923C37.9033 11.923 38.9601 10.8662 38.9601 9.5625C38.9601 8.25882 37.9033 7.20199 36.5996 7.20199C35.2959 7.20199 34.2391 8.25882 34.2391 9.5625Z" fill="#A387FF"/>
</svg>
