<svg width="48" height="48" viewBox="0 0 48 48" fill="none" xmlns="http://www.w3.org/2000/svg">
<path opacity="0.3" d="M7.67039 30.8891L5.69039 32.0483C5.41957 32.2071 5.19499 32.4339 5.03894 32.7063C4.88288 32.9787 4.80078 33.2872 4.80078 33.6011C4.80078 33.915 4.88288 34.2235 5.03894 34.4959C5.19499 34.7683 5.41957 34.9951 5.69039 35.1539L23.0904 45.3539C23.3663 45.5155 23.6803 45.6007 24 45.6007C24.3197 45.6007 24.6337 45.5155 24.9096 45.3539L42.3096 35.1539C42.5804 34.9951 42.805 34.7683 42.961 34.4959C43.1171 34.2235 43.1992 33.915 43.1992 33.6011C43.1992 33.2872 43.1171 32.9787 42.961 32.7063C42.805 32.4339 42.5804 32.2071 42.3096 32.0483L40.3296 30.8867L26.7312 38.8595C25.9029 39.3451 24.9601 39.6011 24 39.6011C23.0398 39.6011 22.0971 39.3451 21.2688 38.8595L7.67039 30.8891Z" fill="#A387FF"/>
<path opacity="0.3" d="M7.67039 21.2876L5.69039 22.4468C5.41957 22.6055 5.19499 22.8324 5.03894 23.1048C4.88288 23.3772 4.80078 23.6856 4.80078 23.9996C4.80078 24.3135 4.88288 24.622 5.03894 24.8943C5.19499 25.1667 5.41957 25.3936 5.69039 25.5524L23.0904 35.7524C23.3663 35.9139 23.6803 35.9991 24 35.9991C24.3197 35.9991 24.6337 35.9139 24.9096 35.7524L42.3096 25.5524C42.5804 25.3936 42.805 25.1667 42.961 24.8943C43.1171 24.622 43.1992 24.3135 43.1992 23.9996C43.1992 23.6856 43.1171 23.3772 42.961 23.1048C42.805 22.8324 42.5804 22.6055 42.3096 22.4468L40.3296 21.2852L26.7312 29.258C25.9029 29.7436 24.9601 29.9996 24 29.9996C23.0398 29.9996 22.0971 29.7436 21.2688 29.258L7.67039 21.2876Z" fill="#A387FF"/>
<path d="M24.9119 2.64658C24.6355 2.48411 24.3206 2.39844 24 2.39844C23.6793 2.39844 23.3644 2.48411 23.0879 2.64658L5.68795 12.8466C5.41713 13.0054 5.19255 13.2322 5.0365 13.5046C4.88044 13.777 4.79834 14.0855 4.79834 14.3994C4.79834 14.7133 4.88044 15.0218 5.0365 15.2942C5.19255 15.5666 5.41713 15.7934 5.68795 15.9522L23.0879 26.1522C23.3644 26.3147 23.6793 26.4003 24 26.4003C24.3206 26.4003 24.6355 26.3147 24.9119 26.1522L42.3119 15.9522C42.5828 15.7934 42.8073 15.5666 42.9634 15.2942C43.1195 15.0218 43.2016 14.7133 43.2016 14.3994C43.2016 14.0855 43.1195 13.777 42.9634 13.5046C42.8073 13.2322 42.5828 13.0054 42.3119 12.8466L24.9119 2.64658Z" fill="#A387FF"/>
</svg>
