<svg width="48" height="48" viewBox="0 0 48 48" fill="none" xmlns="http://www.w3.org/2000/svg">
<path opacity="0.3" d="M22 4.09966V10.1397C15.216 11.1137 10 16.9497 10 23.9997C10 31.7317 16.268 37.9997 24 37.9997C27.144 37.9997 30.048 36.9637 32.384 35.2117L36.658 39.4857C33.21 42.3057 28.8 43.9997 24 43.9997C12.954 43.9997 4 35.0457 4 23.9997C4 13.6297 11.894 5.10166 22 4.09966ZM43.9 25.9997C43.5 30.0217 41.912 33.6937 39.486 36.6557L35.212 32.3837C36.586 30.5517 37.518 28.3717 37.858 25.9997H43.902H43.9ZM26.004 4.09966C35.452 5.03766 42.964 12.5517 43.904 21.9997H37.86C36.984 15.8697 32.134 11.0197 26.004 10.1417V4.09766V4.09966Z" fill="#A387FF"/>
<path d="M43.9004 25.9997C43.5004 30.0217 41.9124 33.6937 39.4864 36.6557L35.2124 32.3837C36.5864 30.5517 37.5184 28.3717 37.8584 25.9997H43.9024H43.9004ZM26.0044 4.09966C35.4524 5.03766 42.9644 12.5517 43.9044 21.9997H37.8604C36.9844 15.8697 32.1344 11.0197 26.0044 10.1417V4.09766V4.09966Z" fill="#A387FF"/>
</svg>
